<?xml version="1.0" encoding="utf-8"?>
<!-- Generator: Adobe Illustrator 26.0.1, SVG Export Plug-In . SVG Version: 6.00 Build 0)  -->
<svg version="1.1" id="Capa_1" xmlns="http://www.w3.org/2000/svg" xmlns:xlink="http://www.w3.org/1999/xlink" x="0px" y="0px"
	 viewBox="0 0 1000 300" style="enable-background:new 0 0 1000 300;" xml:space="preserve">
<style type="text/css">
	.st0{fill:none;stroke:#DD7324;stroke-width:4.8796;stroke-linecap:round;stroke-linejoin:round;stroke-miterlimit:10;}
	.st1{fill:none;stroke:#585453;stroke-width:5.1238;stroke-linecap:round;stroke-miterlimit:10;}
	.st2{fill:#FFFFFF;stroke:#585453;stroke-width:5.1238;stroke-linecap:round;stroke-miterlimit:10;}

	@keyframes mueve {

			
		
		0% {
                transform: rotate(0.060turn);
            }
        
        100% {transform: rotate(5deg);left:5px;}   
        	}

        div {
        	transform: translate(0px, 0px);
        
  			
		}

            #una {
            transform-origin: center;
            animation: mueve 2s infinite alternate;
        }

</style>
<path id="tendon" class="st0" d="M583.1,185.2c-1.1,4.3-3.9,11.4-10.9,17.7c-2.9,2.6-5.5,5.3-7.8,8.1c-3.1,3.7-9.6,7.3-12.8,11.8
	c-1.9,2.8,2.3,7.4,6.2,8.8c1.5,0.5,3.1,1,4.8,1.4c2.6,0.6,5.5-0.1,6.8-1.9c4.1-5.7,13.6-19.1,19.8-26.9c1.4-1.8,2-3.8,1.8-5.9
	c-0.4-3.6-1.4-9.3-4-13.5C586.2,183.6,583.4,183.8,583.1,185.2z"/>
<g id="pata">
	<path class="st1" d="M255.5,137.4c0,0,31.7,38.8,21.1,72.8"/>
	<path class="st1" d="M305.9,117.4c0,0,6.2,43.4,50.5,54.2"/>
	<path class="st1" d="M432.9,216.8c18.1-6.9,28.4-2.2,31.8-0.4c1.7,1,3.4,1.9,5.2,2.7c5.4,2.6,15.2,6.8,21.9,7.6
		c7.3,0.9,9.3-5.1,9.8-8.1c0.1-0.8,0.1-1.6,0.1-2.4c0-7.7,9-19.9,9-19.9c2-2.6,3.3-4.9,4.2-6.8c2.1-4.6,0-10-4.6-12.1
		c-28.7-13-121.4-11.3-121.4-11.3c-55.8,4.4-70.4,30.2-70.4,30.2S301.6,225,341.2,229c0,0,13,2.2,45.7-11.9c0,0,8.1-3.6,16.8-1.2"/>
	<path class="st1" d="M399,203.6c0,0,7,7.1,4.7,18.5c0,0-3.9,17.2,11.9,16.5c0,0,18.8,3,18.8-9.5c0,0-5.8-25.2,4-32.1"/>
	<path class="st1" d="M270.4,214c0,0,4.3-7.1,11.5-2c0,0,11,7,31.1,10.1c0,0,9.9,2.8,0,8.6c-3.1,1.8-6.4,2.9-9.9,3.5
		C291.1,236.2,259.9,239.1,270.4,214z"/>
	<path class="st1" d="M428.3,237.7c48.3,0,94.8,8.9,140.7,24.9c11.9,4.8,23,10.2,31.7,9.2c3.9-0.5,8.8-7.6,9.8-10.4"/>
	<path class="st1" d="M268.7,226.1c-3.6,5.6-7,12.5-3.6,18.2s11.5,8,17.2,6.9c29.8-1.1,57.3-5.7,87.1-10.3
		c13.8-1.1,28.1-1.6,42.1-2.5"/>
	<path class="st1" d="M339,229.2c0,0-7.2,2.2-28.2,2.7"/>
	<path class="st2" d="M560.2,211.8c0,0-11.1-14.8-23.1-20.9c-7-3.5-15.4-1.7-20.5,4.1c-8,9.1-23.5,29.7-6.7,36.4
		c2.8,1.1,5.9,1.5,8.9,1.3c8.1-0.5,30.5-1,45.5,8.4c2.5,1.6,5,3,7.6,4.3c10.3,5,31.3,13.9,34.3,3.6c0,0,14.7-21.1-27.5-27.9"/>
</g>
<g id="una">
	<path class="st2" d="M552.6,199.9c-5.3-7.4,10.8-20.5,16.7-26.4c2.2-2.2,5.6-2.3,8.1-0.4c8.2,6.8,29.1,21.5,59.4,27
		c2.9,0.5,5.1,2.6,5.6,5.6c1,4.7,2.8,12,5.8,17.5c2.7,4.7,3.8,10.2,2.8,15.6c-0.1,0.4-0.1,0.7-0.2,1.1c-2.1,10.2-9.7,18.4-19.4,22.1
		c-10.9,4-30.3,2.6-25.7-13.8s-3.2-22.6-24-28.1C574,217.7,560.1,210.2,552.6,199.9z"/>
	<path class="st1" d="M575.1,170.8c5.7-23.1,23.4-37.3,38.3-45.4c15.6-8.4,33.3-12.3,50.9-10.9c50.2,4,59.6,47.8,59.6,47.8
		s-56.8-38.7-83.2,40"/>
</g>
<path id="ligamento_00000019679914758652566970000004981092216591812244_" class="st0" d="M572.2,202.8c-2.9,2.6-5.5,5.3-7.8,8.1
	c-3.1,3.7-9.6,7.3-12.8,11.8c-1.9,2.8,2.3,7.4,6.2,8.8c1.5,0.5,3.1,1,4.8,1.4c2.6,0.6,5.5-0.1,6.8-1.9c4.1-5.7,7.2-10.6,13.4-18.4"
	/>
</svg>
