<?xml version="1.0" encoding="utf-8"?>
<!-- Generator: Adobe Illustrator 26.0.1, SVG Export Plug-In . SVG Version: 6.00 Build 0)  -->
<svg version="1.1" id="Capa_1" xmlns="http://www.w3.org/2000/svg" xmlns:xlink="http://www.w3.org/1999/xlink" x="0px" y="0px"
	 viewBox="0 0 1000 300" style="enable-background:new 0 0 1000 300;" xml:space="preserve">
<style type="text/css">
	.st0{fill:none;stroke:#DD7324;stroke-width:4.8796;stroke-linecap:round;stroke-linejoin:round;stroke-miterlimit:10;}
	.st1{fill:none;stroke:#DD7324;stroke-width:5.1238;stroke-linecap:round;stroke-linejoin:round;}
	.st2{fill:#DD7324;}
	.st3{fill:none;stroke:#585453;stroke-width:5.1238;stroke-linecap:round;stroke-miterlimit:10;}
	.st4{fill:#FFFFFF;stroke:#585453;stroke-width:5.1238;stroke-linecap:round;stroke-miterlimit:10;}
	.st5{fill:none;stroke:#DD7324;stroke-width:5.1238;stroke-linecap:round;stroke-linejoin:round;stroke-miterlimit:10;}

</style>
<path 
	id="ligamento"
	class="st0" d="M583.1,185.2c-1.1,4.3-3.9,11.4-10.9,17.7c-2.9,2.6-5.5,5.3-7.8,8.1c-3.1,3.7-7,8.6-10.2,13.1
	c-1.9,2.8-0.3,6.1,3.6,7.5c1.5,0.5,3.1,1,4.8,1.4c2.6,0.6,5.5-0.1,6.8-1.9c4.1-5.7,13.6-19.1,19.8-26.9c1.4-1.8,2-3.8,1.8-5.9
	c-0.4-3.6-1.4-9.3-4-13.5C586.2,183.6,583.4,183.8,583.1,185.2z"/>
<g>
	<g>
		<path class="st1" d="M745.4,125.3c0,0-25.1-67.7-111-52.2c-39.5,7.1-64.2,30.2-78.2,49.1"/>
		<g>
			<polygon class="st2" points="547.9,100.3 560,117 580.4,119.9 540.9,148.7 			"/>
		</g>
	</g>
</g>
<path class="st3" d="M255.5,137.4c0,0,31.7,38.8,21.1,72.8"/>
<path class="st3" d="M305.9,117.4c0,0,6.2,43.4,50.5,54.2"/>
<path class="st3" d="M432.9,216.8c18.1-6.9,28.4-2.2,31.8-0.4c1.7,1,3.4,1.9,5.2,2.7c5.4,2.6,15.2,6.8,21.9,7.6
	c7.3,0.9,9.3-5.1,9.8-8.1c0.1-0.8,0.1-1.6,0.1-2.4c0-7.7,9-19.9,9-19.9c2-2.6,3.3-4.9,4.2-6.8c2.1-4.6,0-10-4.6-12.1
	c-28.7-13-121.4-11.3-121.4-11.3c-55.8,4.4-70.4,30.2-70.4,30.2S301.6,225,341.2,229c0,0,13,2.2,45.7-11.9c0,0,8.1-3.6,16.8-1.2"/>
<path class="st3" d="M399,203.6c0,0,7,7.1,4.7,18.5c0,0-3.9,17.2,11.9,16.5c0,0,18.8,3,18.8-9.5c0,0-5.8-25.2,4-32.1"/>
<path class="st3" d="M270.4,214c0,0,4.3-7.1,11.5-2c0,0,11,7,31.1,10.1c0,0,9.9,2.8,0,8.6c-3.1,1.8-6.4,2.9-9.9,3.5
	C291.1,236.2,259.9,239.1,270.4,214z"/>
<path class="st3" d="M428.3,237.7c48.3,0,94.8,8.9,140.7,24.9c11.9,4.8,23,10.2,31.7,9.2c3.9-0.5,8.8-7.6,9.8-10.4"/>
<path class="st3" d="M268.7,226.1c-3.6,5.6-7,12.5-3.6,18.2s11.5,8,17.2,6.9c29.8-1.1,57.3-5.7,87.1-10.3
	c13.8-1.1,28.1-1.6,42.1-2.5"/>
<path class="st3" d="M339,229.2c0,0-7.2,2.2-28.2,2.7"/>
<path class="st3" d="M560.2,211.8c0,0-11.1-14.8-23.1-20.9c-7-3.5-15.4-1.7-20.5,4.1c-8,9.1-23.5,29.7-6.7,36.4
	c2.8,1.1,5.9,1.5,8.9,1.3c8.1-0.5,30.5-1,45.5,8.4c2.5,1.6,5,3,7.6,4.3c10.3,5,31.3,13.9,34.3,3.6c0,0,14.7-21.1-27.5-27.9"/>
<g>
	<path class="st4" d="M552.7,200.7c-5.4-7.3,10.6-20.6,16.4-26.6c2.2-2.2,5.6-2.4,8.1-0.5c8.3,6.7,29.3,21.2,59.7,26.4
		c2.9,0.5,5.1,2.6,5.7,5.5c1,4.7,2.9,12,6,17.4c2.7,4.7,3.9,10.2,3,15.6c-0.1,0.4-0.1,0.7-0.2,1.1c-2,10.2-9.5,18.5-19.2,22.3
		c-10.9,4.1-30.3,2.9-25.8-13.6s-3.4-22.6-24.3-27.9C574.3,218.3,560.3,211,552.7,200.7z"/>
	<path class="st3" d="M574.9,171.4c5.5-23.2,23-37.5,37.9-45.8c15.5-8.6,33.2-12.6,50.8-11.4c50.2,3.5,60.1,47.2,60.1,47.2
		s-57.2-38.1-82.8,40.8"/>
</g>
<path class="st5" d="M570.5,196.5c0,0,1.1,4.3-1.4,9.3c-1.2,2.5-3.1,4.6-5.4,6.2c-4,2.8-12.8,10.7-0.6,18.5
	c15.2,9.7,9.1-11.5,23.9-21.2"/>
</svg>
